<?xml version="1.0" encoding="utf-8"?>
<!-- Generator: Adobe Illustrator 19.0.0, SVG Export Plug-In . SVG Version: 6.00 Build 0)  -->
<svg version="1.1" id="Layer_1" xmlns="http://www.w3.org/2000/svg" xmlns:xlink="http://www.w3.org/1999/xlink" x="0px" y="0px"
	 viewBox="0 0 960 960" style="enable-background:new 0 0 960 960;" xml:space="preserve">
<style type="text/css">
	.st0{fill:#323232;stroke:#323232;stroke-width:10;stroke-miterlimit:10;}
	.st1{fill:#D9FF00;}
	.st2{fill:#323232;}
</style>
<g id="XMLID_50_">
	<g id="XMLID_19_">
		<path id="XMLID_20_" class="st0" d="M497.3,335.9v368.2H392.3V440.8l-68.1,263.3h-71.8l-70.8-263.3v263.3H96.9V335.9h147.7
			L298,531.4l51-195.6H497.3z"/>
		<path id="XMLID_22_" class="st0" d="M561.5,704.1V335.9h186.9c38.8,0,67.2,9.8,85,29.4c17.8,19.6,26.7,42,26.7,67.2
			c0,18.3-5.2,34.9-15.5,49.8c-10.3,14.8-25.8,25-46.3,30.6c47.7,11.5,71.5,40.1,71.5,85.8c0,27.3-8.4,51.8-25.2,73.2
			c-16.8,21.5-52.7,32.2-107.8,32.2H561.5z M665.6,476.9h52.3c13.1,0,22.4-3.3,27.8-10c5.4-6.7,8.1-13.8,8.1-21.3
			c0-20.5-12.6-30.8-37.8-30.8h-50.4V476.9z M665.6,622.1h55c13.7,0,23.7-3.4,30.1-10.1c6.4-6.7,9.6-14.3,9.6-22.8
			c0-8.5-3.1-16.2-9.3-23.3c-6.2-7.1-17.6-10.7-34.1-10.7h-51.3V622.1z"/>
	</g>
	<g id="XMLID_2_">
		<path id="XMLID_4_" class="st1" d="M290.6,782.9l-39,147h-37.9l-20.6-81.1l-19.4,81.1h-39.5l-39.1-147h42.5l20.6,84.6l20.1-84.6
			h35.4l21.8,84.8l20.6-84.8H290.6z"/>
		<path id="XMLID_9_" class="st1" d="M364.9,932.2c-20.7,0-37.5-6.9-50.6-20.6c-13-13.7-19.5-32.1-19.5-55c0-22,6.2-40.1,18.7-54.4
			c12.5-14.3,29.7-21.5,51.9-21.5c20.5,0,37.1,6.7,50,20.2c12.9,13.5,19.3,31.5,19.3,54.1c0,23.3-6.5,42-19.5,56.1
			C402.2,925.2,385.4,932.2,364.9,932.2z M364.7,898.8c7.6,0,13.1-3.3,16.4-10c3.3-6.6,5-18.8,5-36.5c0-25.6-6.9-38.3-20.6-38.3
			c-14.8,0-22.2,14.6-22.2,43.7C343.3,885.1,350.4,898.8,364.7,898.8z"/>
		<path id="XMLID_12_" class="st1" d="M584.6,929.9h-50l-21.5-56.2h-14.2v56.2h-45.1v-147h76.8c16.9,0,30.1,4,39.5,11.9
			c9.4,7.9,14.1,18.4,14.1,31.4c0,8.5-1.7,16-5.2,22.5c-3.4,6.5-10.4,12.2-20.9,17.2L584.6,929.9z M498.8,842.3h19.3
			c5.7,0,10.2-1.2,13.7-3.6c3.4-2.4,5.2-5.9,5.2-10.4c0-9.4-5.8-14.1-17.3-14.1h-20.8V842.3z"/>
		<path id="XMLID_15_" class="st1" d="M738.5,929.9h-49.4l-25.4-55.6L648.4,896v33.9h-42.5v-147h42.5v60.8l40.5-60.8h40.6
			l-37.1,53.8L738.5,929.9z"/>
		<path id="XMLID_17_" class="st1" d="M735.3,887.4l41.9-7.5c3.5,11.8,12.6,17.8,27.1,17.8c11.3,0,17-3,17-9c0-3.2-1.3-5.6-3.9-7.4
			c-2.6-1.8-7.3-3.3-14.1-4.7c-25.8-4.9-42.3-11.4-49.6-19.4c-7.3-8-11-17.3-11-28.1c0-13.9,5.3-25.4,15.8-34.6
			c10.5-9.2,25.6-13.8,45.4-13.8c29.9,0,49.7,12,59.3,36.1L825.9,828c-3.9-9.8-11.7-14.8-23.6-14.8c-9.8,0-14.8,3.1-14.8,9.2
			c0,2.7,1.1,4.8,3.3,6.4c2.2,1.5,6.5,2.9,12.9,4.3c17.6,3.7,30.1,7,37.5,9.9c7.4,2.9,13.6,7.8,18.5,14.7c4.9,6.9,7.4,15.1,7.4,24.5
			c0,14.9-6,26.9-18.1,36.2c-12.1,9.2-27.9,13.8-47.5,13.8C765.8,932.2,743.7,917.3,735.3,887.4z"/>
	</g>
	<polygon id="XMLID_8_" class="st2" points="873.8,265 480.5,27 302,135.8 302,69 193,69 193,204.2 86.6,265 	"/>
</g>
</svg>
