<?xml version="1.0" encoding="utf-8"?>
<!-- Generator: Adobe Illustrator 19.0.0, SVG Export Plug-In . SVG Version: 6.00 Build 0)  -->
<svg version="1.1" id="Layer_1" xmlns="http://www.w3.org/2000/svg" xmlns:xlink="http://www.w3.org/1999/xlink" x="0px" y="0px"
	 viewBox="0 0 960 960" style="enable-background:new 0 0 960 960;" xml:space="preserve">
<style type="text/css">
	.st0{fill:#131313;}
	.st1{fill:#D9FF00;stroke:#D9FF00;stroke-miterlimit:10;}
	.st2{fill:none;stroke:#131313;stroke-width:20;stroke-miterlimit:10;}
</style>
<g id="XMLID_2_">
	<path id="XMLID_4_" class="st0" d="M500.3,366.9v352.8H399.8V467.4l-65.3,252.2h-68.7L198,467.4v252.2h-81.1V366.9h141.5
		l51.2,187.4l48.8-187.4H500.3z"/>
	<path id="XMLID_9_" class="st0" d="M561.8,719.6V366.9h179.1c37.2,0,64.3,9.4,81.4,28.2c17.1,18.8,25.6,40.2,25.6,64.3
		c0,17.6-5,33.5-14.9,47.7c-9.9,14.2-24.7,24-44.3,29.3c45.7,11,68.5,38.4,68.5,82.2c0,26.2-8.1,49.6-24.2,70.2
		c-16.1,20.6-50.5,30.9-103.2,30.9H561.8z M661.6,502h50.1c12.6,0,21.4-3.2,26.6-9.6c5.2-6.4,7.8-13.2,7.8-20.4
		c0-19.6-12.1-29.5-36.2-29.5h-48.3V502z M661.6,641.1h52.7c13.1,0,22.7-3.2,28.8-9.7c6.1-6.5,9.2-13.7,9.2-21.8
		c0-8.1-3-15.5-8.9-22.4c-5.9-6.8-16.8-10.2-32.7-10.2h-49.1V641.1z"/>
</g>
<g id="XMLID_1_">
	<path id="XMLID_13_" class="st1" d="M303.2,795.1L265.8,936h-36.3l-19.7-77.7L191.2,936h-37.9l-37.4-140.8h40.7l19.7,81.1
		l19.2-81.1h33.9l20.9,81.2l19.7-81.2H303.2z"/>
	<path id="XMLID_15_" class="st1" d="M374.4,938.1c-19.8,0-36-6.6-48.4-19.7c-12.5-13.1-18.7-30.7-18.7-52.7c0-21,6-38.4,17.9-52.2
		c11.9-13.7,28.5-20.6,49.7-20.6c19.6,0,35.6,6.5,47.9,19.4c12.3,12.9,18.5,30.2,18.5,51.8c0,22.4-6.2,40.3-18.7,53.8
		C410.1,931.4,394.1,938.1,374.4,938.1z M374.2,906.1c7.3,0,12.5-3.2,15.7-9.5c3.2-6.4,4.8-18,4.8-34.9c0-24.5-6.6-36.7-19.7-36.7
		c-14.2,0-21.3,14-21.3,41.9C353.8,893,360.6,906.1,374.2,906.1z"/>
	<path id="XMLID_18_" class="st1" d="M584.8,936h-47.9l-20.6-53.9h-13.6V936h-43.2V795.1h73.6c16.2,0,28.8,3.8,37.8,11.4
		c9,7.6,13.5,17.6,13.5,30.1c0,8.1-1.7,15.3-5,21.5c-3.3,6.2-10,11.7-20,16.5L584.8,936z M502.7,852h18.5c5.4,0,9.8-1.1,13.1-3.4
		c3.3-2.3,5-5.6,5-10c0-9-5.5-13.5-16.6-13.5h-19.9V852z"/>
	<path id="XMLID_21_" class="st1" d="M732.3,936H685l-24.3-53.2L646,903.5V936h-40.8V795.1H646v58.2l38.8-58.2h38.8l-35.6,51.5
		L732.3,936z"/>
	<path id="XMLID_23_" class="st1" d="M729.3,895.2l40.1-7.2c3.4,11.3,12,17,26,17c10.9,0,16.3-2.9,16.3-8.7c0-3-1.3-5.4-3.8-7.1
		c-2.5-1.7-7-3.2-13.5-4.5c-24.7-4.7-40.5-10.9-47.6-18.6c-7-7.6-10.5-16.6-10.5-26.9c0-13.3,5-24.3,15.1-33.1
		c10.1-8.8,24.6-13.2,43.5-13.2c28.7,0,47.6,11.5,56.8,34.6L816,838.4c-3.7-9.4-11.2-14.1-22.6-14.1c-9.4,0-14.1,2.9-14.1,8.8
		c0,2.6,1.1,4.6,3.2,6.1c2.1,1.4,6.3,2.8,12.4,4.1c16.9,3.6,28.8,6.7,35.9,9.5c7.1,2.7,13,7.4,17.7,14.1c4.7,6.6,7.1,14.5,7.1,23.5
		c0,14.2-5.8,25.8-17.3,34.6c-11.6,8.8-26.7,13.3-45.5,13.3C758.5,938.1,737.3,923.8,729.3,895.2z"/>
</g>
<polygon id="XMLID_8_" class="st2" points="883.6,292.2 486.3,33.2 277,163.1 277,60 149,58.1 149,250.6 75.7,298.6 "/>
</svg>
